# Blender v2.82 (sub 7) OBJ File: 'dashCone.blend'
# www.blender.org
mtllib dashCone.mtl
o Cube
v 0.144232 0.832098 0.830666
v 0.288796 0.673693 0.870741
v 0.434515 0.481734 0.883777
v 0.558059 0.253812 0.901649
v -0.119489 0.908236 0.923847
v -0.684702 1.033668 1.009981
v -1.173530 1.112036 1.077374
v -1.675264 1.115871 1.116102
v 0.555349 0.928055 0.216574
v 0.402523 0.928225 0.477128
v 0.291232 0.886060 0.661493
v -0.119489 1.198250 0.262859
v -0.684702 1.380962 0.298372
v -1.173530 1.500479 0.307076
v -1.675746 1.548036 0.307868
v -0.119489 1.115815 0.531808
v -0.684702 1.289231 0.581182
v -1.173530 1.422321 0.588868
v -1.675498 1.458160 0.603991
v -0.119489 1.045583 0.739130
v -0.684702 1.182700 0.810733
v -1.173530 1.292350 0.839251
v -1.675502 1.312227 0.876963
v -0.119489 0.282820 1.181989
v -0.119489 0.542665 1.132623
v -0.119489 0.754348 1.058657
v -0.684702 0.299112 1.389535
v -0.684702 0.589369 1.314378
v -0.684702 0.850826 1.177841
v -1.173530 0.306252 1.510338
v -1.173530 0.601141 1.423675
v -1.173530 0.873602 1.281758
v -1.675674 0.307871 1.547971
v -1.675496 0.603908 1.458151
v -1.675240 0.876733 1.312298
v 1.099072 0.195128 0.191109
v 1.031210 0.396067 0.196617
v 0.903275 0.646373 0.197635
v 1.013414 0.197227 0.397169
v 0.947797 0.407787 0.405304
v 0.830251 0.644881 0.415812
v 0.878302 0.211198 0.616611
v 0.828420 0.417990 0.603840
v 0.671669 0.646618 0.611479
v 0.144232 0.832098 -0.830666
v 0.288796 0.673693 -0.870741
v 0.434515 0.481734 -0.883777
v 0.558059 0.253812 -0.901649
v -0.119489 0.908236 -0.923847
v -0.684702 1.033668 -1.009981
v -1.173530 1.112036 -1.077374
v -1.675264 1.115871 -1.116102
v 0.577309 0.939407 0.000000
v 0.555349 0.928055 -0.216574
v 0.402523 0.928225 -0.477128
v 0.291232 0.886060 -0.661493
v -0.119489 1.212956 0.000000
v -0.684702 1.414563 0.000000
v -1.173530 1.539651 0.000000
v -1.675735 1.578301 0.000000
v -0.119489 1.198250 -0.262859
v -0.684702 1.380962 -0.298372
v -1.173530 1.500479 -0.307076
v -1.675746 1.548036 -0.307868
v -0.119489 1.115815 -0.531808
v -0.684702 1.289231 -0.581182
v -1.173530 1.422321 -0.588868
v -1.675498 1.458160 -0.603991
v -0.119489 1.045583 -0.739130
v -0.684702 1.182700 -0.810733
v -1.173530 1.292350 -0.839251
v -1.675502 1.312227 -0.876963
v -0.119489 0.282820 -1.181989
v -0.119489 0.542665 -1.132623
v -0.119489 0.754348 -1.058657
v -0.684702 0.299112 -1.389535
v -0.684702 0.589369 -1.314378
v -0.684702 0.850826 -1.177841
v -1.173530 0.306252 -1.510338
v -1.173530 0.601141 -1.423675
v -1.173530 0.873602 -1.281758
v -1.675674 0.307871 -1.547971
v -1.675496 0.603908 -1.458151
v -1.675240 0.876733 -1.312298
v 1.117880 0.195097 0.000000
v 1.061187 0.388597 0.000000
v 0.922699 0.641335 0.000000
v 1.099072 0.195128 -0.191109
v 1.031210 0.396067 -0.196617
v 0.903275 0.646373 -0.197635
v 1.013414 0.197227 -0.397169
v 0.947797 0.407787 -0.405304
v 0.830251 0.644881 -0.415812
v 0.878302 0.211198 -0.616611
v 0.828420 0.417990 -0.603840
v 0.671669 0.646618 -0.611479
v 0.144232 -0.832098 0.830666
v 0.288796 -0.673693 0.870741
v 0.434515 -0.481734 0.883777
v 0.558059 -0.253812 0.901649
v 0.600120 0.000000 0.907868
v -0.119489 -0.908236 0.923847
v -0.684702 -1.033668 1.009981
v -1.173530 -1.112036 1.077374
v -1.675264 -1.115871 1.116102
v 0.555349 -0.928055 0.216574
v 0.402523 -0.928225 0.477128
v 0.291232 -0.886060 0.661493
v -0.119489 -1.198250 0.262859
v -0.684702 -1.380962 0.298372
v -1.173530 -1.500479 0.307076
v -1.675746 -1.548036 0.307868
v -0.119489 -1.115815 0.531808
v -0.684702 -1.289231 0.581182
v -1.173530 -1.422321 0.588868
v -1.675498 -1.458160 0.603991
v -0.119489 -1.045583 0.739130
v -0.684702 -1.182700 0.810733
v -1.173530 -1.292350 0.839251
v -1.675502 -1.312227 0.876963
v -0.119489 0.000000 1.199235
v -0.119489 -0.282820 1.181989
v -0.119489 -0.542665 1.132623
v -0.119489 -0.754348 1.058657
v -0.684702 0.000000 1.414619
v -0.684702 -0.299112 1.389535
v -0.684702 -0.589369 1.314378
v -0.684702 -0.850826 1.177841
v -1.173530 0.000000 1.539554
v -1.173530 -0.306252 1.510338
v -1.173530 -0.601141 1.423675
v -1.173530 -0.873602 1.281758
v -1.675735 0.000000 1.578301
v -1.675674 -0.307871 1.547971
v -1.675496 -0.603908 1.458151
v -1.675240 -0.876733 1.312298
v 1.117974 0.000000 0.187832
v 1.099072 -0.195128 0.191109
v 1.031210 -0.396067 0.196617
v 0.903275 -0.646373 0.197635
v 1.032023 0.000000 0.393006
v 1.013414 -0.197227 0.397169
v 0.947797 -0.407787 0.405304
v 0.830251 -0.644881 0.415812
v 0.879988 0.000000 0.619510
v 0.878302 -0.211198 0.616611
v 0.828420 -0.417990 0.603840
v 0.671669 -0.646618 0.611479
v 0.144232 -0.832098 -0.830666
v 0.288796 -0.673693 -0.870741
v 0.434515 -0.481734 -0.883777
v 0.558059 -0.253812 -0.901649
v 0.600120 0.000000 -0.907868
v -0.119489 -0.908236 -0.923847
v -0.684702 -1.033668 -1.009981
v -1.173530 -1.112036 -1.077374
v -1.675264 -1.115871 -1.116102
v 0.577309 -0.939407 0.000000
v 0.555349 -0.928055 -0.216574
v 0.402523 -0.928225 -0.477128
v 0.291232 -0.886060 -0.661493
v -0.119489 -1.212956 0.000000
v -0.684702 -1.414563 0.000000
v -1.173530 -1.539651 0.000000
v -1.675735 -1.578301 0.000000
v -0.119489 -1.198250 -0.262859
v -0.684702 -1.380962 -0.298372
v -1.173530 -1.500479 -0.307076
v -1.675746 -1.548036 -0.307868
v -0.119489 -1.115815 -0.531808
v -0.684702 -1.289231 -0.581182
v -1.173530 -1.422321 -0.588868
v -1.675498 -1.458160 -0.603991
v -0.119489 -1.045583 -0.739130
v -0.684702 -1.182700 -0.810733
v -1.173530 -1.292350 -0.839251
v -1.675502 -1.312227 -0.876963
v -0.119489 0.000000 -1.199235
v -0.119489 -0.282820 -1.181989
v -0.119489 -0.542665 -1.132623
v -0.119489 -0.754348 -1.058657
v -0.684702 0.000000 -1.414619
v -0.684702 -0.299112 -1.389535
v -0.684702 -0.589369 -1.314378
v -0.684702 -0.850826 -1.177841
v -1.173530 0.000000 -1.539554
v -1.173530 -0.306252 -1.510338
v -1.173530 -0.601141 -1.423675
v -1.173530 -0.873602 -1.281758
v -1.675735 0.000000 -1.578301
v -1.675674 -0.307871 -1.547971
v -1.675496 -0.603908 -1.458151
v -1.675240 -0.876733 -1.312298
v 1.137149 0.000000 0.000000
v 1.117880 -0.195097 0.000000
v 1.061187 -0.388597 0.000000
v 0.922699 -0.641335 0.000000
v 1.117974 0.000000 -0.187832
v 1.099072 -0.195128 -0.191109
v 1.031210 -0.396067 -0.196617
v 0.903275 -0.646373 -0.197635
v 1.032023 0.000000 -0.393006
v 1.013414 -0.197227 -0.397169
v 0.947797 -0.407787 -0.405304
v 0.830251 -0.644881 -0.415812
v 0.879988 0.000000 -0.619510
v 0.878302 -0.211198 -0.616611
v 0.828420 -0.417990 -0.603840
v 0.671669 -0.646618 -0.611479
vt 0.750000 0.918690
vt 0.750000 0.961940
vt 0.674747 0.950287
vt 0.698190 0.911253
vt 0.750000 0.990393
vt 0.625000 0.978036
vt 0.365975 1.000000
vt 0.500000 0.990393
vt 0.625000 0.920921
vt 0.653750 0.881528
vt 0.571320 0.952610
vt 0.500000 0.961940
vt 0.593750 0.883961
vt 0.625000 0.853554
vt 0.551811 0.911253
vt 0.500000 0.915735
vt 0.500000 0.853553
vt 0.537634 0.853553
vt 0.575378 0.834566
vt 0.604590 0.804969
vt 0.645410 0.804969
vt 0.625000 0.779679
vt 0.671059 0.830955
vt 0.712366 0.853553
vt 0.750000 0.860256
vt 0.593750 0.500000
vt 0.593750 0.597545
vt 0.562500 0.597545
vt 0.562500 0.500000
vt 0.593750 0.684787
vt 0.562500 0.691342
vt 0.594450 0.753291
vt 0.565475 0.775188
vt 0.531250 0.597545
vt 0.531250 0.500000
vt 0.531250 0.691342
vt 0.531558 0.777785
vt 0.500000 0.597545
vt 0.500000 0.500000
vt 0.500000 0.691342
vt 0.500000 0.777785
vt 0.625000 0.500000
vt 0.625000 0.597545
vt 0.625000 0.679377
vt 0.626094 0.743304
vt 0.750000 0.500000
vt 0.750000 0.597545
vt 0.718750 0.597545
vt 0.718750 0.500000
vt 0.750000 0.691342
vt 0.715764 0.695832
vt 0.750000 0.771356
vt 0.715189 0.777263
vt 0.683282 0.597545
vt 0.683864 0.500000
vt 0.681156 0.694219
vt 0.681891 0.770410
vt 0.656250 0.597545
vt 0.656250 0.500000
vt 0.656182 0.677159
vt 0.655550 0.753292
vt 0.698190 0.911253
vt 0.674747 0.950287
vt 0.625000 0.978036
vt 0.500000 0.990393
vt 0.653750 0.881528
vt 0.625000 0.920921
vt 0.571320 0.952610
vt 0.500000 0.961940
vt 0.625000 0.853554
vt 0.593750 0.883961
vt 0.551811 0.911253
vt 0.500000 0.915735
vt 0.537634 0.853553
vt 0.500000 0.853553
vt 0.575378 0.834566
vt 0.604590 0.804969
vt 0.645410 0.804969
vt 0.625000 0.779679
vt 0.671059 0.830955
vt 0.712366 0.853553
vt 0.593750 0.500000
vt 0.562500 0.500000
vt 0.562500 0.597545
vt 0.593750 0.597545
vt 0.562500 0.691342
vt 0.593750 0.684787
vt 0.565475 0.775188
vt 0.594450 0.753291
vt 0.531250 0.500000
vt 0.531250 0.597545
vt 0.531250 0.691342
vt 0.531558 0.777785
vt 0.500000 0.500000
vt 0.500000 0.597545
vt 0.500000 0.691342
vt 0.500000 0.777785
vt 0.625000 0.500000
vt 0.625000 0.597545
vt 0.625000 0.679377
vt 0.626094 0.743304
vt 0.718750 0.500000
vt 0.718750 0.597545
vt 0.715764 0.695832
vt 0.715189 0.777263
vt 0.683864 0.500000
vt 0.683282 0.597545
vt 0.681156 0.694219
vt 0.681891 0.770410
vt 0.656250 0.500000
vt 0.656250 0.597545
vt 0.656182 0.677159
vt 0.655550 0.753292
vt 0.750000 0.918690
vt 0.698190 0.911253
vt 0.674747 0.950287
vt 0.750000 0.961940
vt 0.625000 0.978036
vt 0.750000 0.990393
vt 0.500000 0.990393
vt 0.365975 1.000000
vt 0.653750 0.881528
vt 0.625000 0.920921
vt 0.571320 0.952610
vt 0.500000 0.961940
vt 0.625000 0.853554
vt 0.593750 0.883961
vt 0.551811 0.911253
vt 0.500000 0.915735
vt 0.537634 0.853553
vt 0.500000 0.853553
vt 0.575378 0.834566
vt 0.604590 0.804969
vt 0.645410 0.804969
vt 0.625000 0.779679
vt 0.671059 0.830955
vt 0.712366 0.853553
vt 0.750000 0.860256
vt 0.562500 0.597545
vt 0.593750 0.597545
vt 0.562500 0.691342
vt 0.593750 0.684787
vt 0.565475 0.775188
vt 0.594450 0.753291
vt 0.531250 0.597545
vt 0.531250 0.691342
vt 0.531558 0.777785
vt 0.500000 0.597545
vt 0.500000 0.691342
vt 0.500000 0.777785
vt 0.625000 0.597545
vt 0.625000 0.679377
vt 0.626094 0.743304
vt 0.718750 0.597545
vt 0.750000 0.597545
vt 0.715764 0.695832
vt 0.750000 0.691342
vt 0.715189 0.777263
vt 0.750000 0.771356
vt 0.683282 0.597545
vt 0.681156 0.694219
vt 0.681891 0.770410
vt 0.656250 0.597545
vt 0.656182 0.677159
vt 0.655550 0.753292
vt 0.674747 0.950287
vt 0.698190 0.911253
vt 0.625000 0.978036
vt 0.500000 0.990393
vt 0.625000 0.920921
vt 0.653750 0.881528
vt 0.571320 0.952610
vt 0.500000 0.961940
vt 0.593750 0.883961
vt 0.625000 0.853554
vt 0.551811 0.911253
vt 0.500000 0.915735
vt 0.500000 0.853553
vt 0.537634 0.853553
vt 0.575378 0.834566
vt 0.604590 0.804969
vt 0.645410 0.804969
vt 0.625000 0.779679
vt 0.671059 0.830955
vt 0.712366 0.853553
vt 0.593750 0.597545
vt 0.562500 0.597545
vt 0.593750 0.684787
vt 0.562500 0.691342
vt 0.594450 0.753291
vt 0.565475 0.775188
vt 0.531250 0.597545
vt 0.531250 0.691342
vt 0.531558 0.777785
vt 0.500000 0.597545
vt 0.500000 0.691342
vt 0.500000 0.777785
vt 0.625000 0.597545
vt 0.625000 0.679377
vt 0.626094 0.743304
vt 0.718750 0.597545
vt 0.715764 0.695832
vt 0.715189 0.777263
vt 0.683282 0.597545
vt 0.681156 0.694219
vt 0.681891 0.770410
vt 0.656250 0.597545
vt 0.656182 0.677159
vt 0.655550 0.753292
vn 0.3231 0.9429 0.0812
vn 0.2421 0.9633 0.1158
vn 0.0851 0.9901 0.1118
vn 0.3074 0.9074 0.2864
vn 0.2446 0.9285 0.2794
vn 0.0839 0.9569 0.2782
vn 0.2828 0.8892 0.3598
vn 0.2325 0.8724 0.4299
vn 0.0734 0.8822 0.4651
vn 0.0656 0.7833 0.6182
vn 0.2080 0.7814 0.5884
vn 0.2603 0.7740 0.5773
vn 0.3961 0.7288 0.5585
vn 0.3699 0.8599 0.3518
vn 0.3643 0.8985 0.2448
vn 0.3696 0.9267 0.0673
vn 0.3505 0.0679 0.9341
vn 0.3288 0.2085 0.9211
vn 0.2827 0.3899 0.8764
vn 0.2435 0.0867 0.9660
vn 0.2260 0.2596 0.9389
vn 0.2052 0.4526 0.8678
vn 0.0756 0.0962 0.9925
vn 0.0699 0.2854 0.9558
vn 0.0599 0.4659 0.8828
vn 0.3790 0.0701 0.9227
vn 0.3985 0.2236 0.8895
vn 0.4298 0.3358 0.8381
vn 0.4254 0.5841 0.6913
vn 0.2573 0.6460 0.7187
vn 0.1959 0.6493 0.7348
vn 0.0573 0.6416 0.7649
vn 0.9904 0.0960 0.0993
vn 0.9479 0.2977 0.1135
vn 0.8798 0.4657 0.0955
vn 0.9200 0.0807 0.3835
vn 0.8928 0.2778 0.3547
vn 0.8540 0.4230 0.3029
vn 0.8407 0.0401 0.5401
vn 0.8359 0.2368 0.4952
vn 0.7475 0.4202 0.5144
vn 0.6409 0.7639 0.0757
vn 0.5842 0.7626 0.2777
vn 0.5277 0.7196 0.4513
vn 0.4772 0.6140 0.6287
vn 0.5526 0.4067 0.7275
vn 0.6191 0.2982 0.7265
vn 0.6916 0.0791 0.7179
vn 0.3231 0.9429 -0.0812
vn 0.2421 0.9633 -0.1158
vn 0.0851 0.9901 -0.1118
vn 0.3074 0.9074 -0.2864
vn 0.2446 0.9285 -0.2794
vn 0.0839 0.9569 -0.2782
vn 0.2828 0.8892 -0.3598
vn 0.2325 0.8724 -0.4299
vn 0.0734 0.8822 -0.4651
vn 0.0656 0.7833 -0.6182
vn 0.2080 0.7814 -0.5884
vn 0.2603 0.7740 -0.5773
vn 0.3961 0.7288 -0.5585
vn 0.3699 0.8599 -0.3518
vn 0.3643 0.8985 -0.2448
vn 0.3696 0.9267 -0.0673
vn 0.3505 0.0679 -0.9341
vn 0.3288 0.2085 -0.9211
vn 0.2827 0.3899 -0.8764
vn 0.2435 0.0867 -0.9660
vn 0.2260 0.2596 -0.9389
vn 0.2052 0.4526 -0.8678
vn 0.0756 0.0962 -0.9925
vn 0.0699 0.2854 -0.9558
vn 0.0599 0.4659 -0.8828
vn 0.3790 0.0701 -0.9227
vn 0.3985 0.2236 -0.8895
vn 0.4298 0.3358 -0.8381
vn 0.4254 0.5841 -0.6913
vn 0.2573 0.6460 -0.7187
vn 0.1959 0.6493 -0.7348
vn 0.0573 0.6416 -0.7649
vn 0.9904 0.0960 -0.0993
vn 0.9479 0.2977 -0.1135
vn 0.8798 0.4657 -0.0955
vn 0.9200 0.0807 -0.3835
vn 0.8928 0.2778 -0.3547
vn 0.8540 0.4230 -0.3029
vn 0.8407 0.0401 -0.5401
vn 0.8359 0.2368 -0.4952
vn 0.7475 0.4202 -0.5144
vn 0.6409 0.7639 -0.0757
vn 0.5842 0.7626 -0.2777
vn 0.5277 0.7196 -0.4513
vn 0.4772 0.6140 -0.6287
vn 0.5526 0.4067 -0.7275
vn 0.6191 0.2982 -0.7265
vn 0.6916 0.0791 -0.7179
vn 0.3231 -0.9429 0.0812
vn 0.2421 -0.9633 0.1158
vn 0.0851 -0.9901 0.1118
vn 0.3074 -0.9074 0.2864
vn 0.2446 -0.9285 0.2794
vn 0.0839 -0.9569 0.2782
vn 0.2828 -0.8892 0.3598
vn 0.2325 -0.8724 0.4299
vn 0.0734 -0.8822 0.4651
vn 0.0656 -0.7833 0.6182
vn 0.2080 -0.7814 0.5884
vn 0.2603 -0.7740 0.5773
vn 0.3961 -0.7288 0.5585
vn 0.3699 -0.8599 0.3518
vn 0.3643 -0.8985 0.2448
vn 0.3696 -0.9267 0.0673
vn 0.3505 -0.0679 0.9341
vn 0.3288 -0.2085 0.9211
vn 0.2827 -0.3899 0.8764
vn 0.2435 -0.0867 0.9660
vn 0.2260 -0.2596 0.9389
vn 0.2052 -0.4526 0.8678
vn 0.0756 -0.0962 0.9925
vn 0.0699 -0.2854 0.9558
vn 0.0599 -0.4659 0.8828
vn 0.3790 -0.0701 0.9227
vn 0.3985 -0.2236 0.8895
vn 0.4298 -0.3358 0.8381
vn 0.4254 -0.5841 0.6913
vn 0.2573 -0.6460 0.7187
vn 0.1959 -0.6493 0.7348
vn 0.0573 -0.6416 0.7649
vn 0.9904 -0.0960 0.0993
vn 0.9479 -0.2977 0.1135
vn 0.8798 -0.4657 0.0955
vn 0.9200 -0.0807 0.3835
vn 0.8928 -0.2778 0.3547
vn 0.8540 -0.4230 0.3029
vn 0.8407 -0.0401 0.5401
vn 0.8359 -0.2368 0.4952
vn 0.7475 -0.4202 0.5144
vn 0.6409 -0.7639 0.0757
vn 0.5842 -0.7626 0.2777
vn 0.5277 -0.7196 0.4513
vn 0.4772 -0.6140 0.6287
vn 0.5526 -0.4067 0.7275
vn 0.6191 -0.2982 0.7265
vn 0.6916 -0.0791 0.7179
vn 0.3231 -0.9429 -0.0812
vn 0.2421 -0.9633 -0.1158
vn 0.0851 -0.9901 -0.1118
vn 0.3074 -0.9074 -0.2864
vn 0.2446 -0.9285 -0.2794
vn 0.0839 -0.9569 -0.2782
vn 0.2828 -0.8892 -0.3598
vn 0.2325 -0.8724 -0.4299
vn 0.0734 -0.8822 -0.4651
vn 0.0656 -0.7833 -0.6182
vn 0.2080 -0.7814 -0.5884
vn 0.2603 -0.7740 -0.5773
vn 0.3961 -0.7288 -0.5585
vn 0.3699 -0.8599 -0.3518
vn 0.3643 -0.8985 -0.2448
vn 0.3696 -0.9267 -0.0673
vn 0.3505 -0.0679 -0.9341
vn 0.3288 -0.2085 -0.9211
vn 0.2827 -0.3899 -0.8764
vn 0.2435 -0.0867 -0.9660
vn 0.2260 -0.2596 -0.9389
vn 0.2052 -0.4526 -0.8678
vn 0.0756 -0.0962 -0.9925
vn 0.0699 -0.2854 -0.9558
vn 0.0599 -0.4659 -0.8828
vn 0.3790 -0.0701 -0.9227
vn 0.3985 -0.2236 -0.8895
vn 0.4298 -0.3358 -0.8381
vn 0.4254 -0.5841 -0.6913
vn 0.2573 -0.6460 -0.7187
vn 0.1959 -0.6493 -0.7348
vn 0.0573 -0.6416 -0.7649
vn 0.9904 -0.0960 -0.0993
vn 0.9479 -0.2977 -0.1135
vn 0.8798 -0.4657 -0.0955
vn 0.9200 -0.0807 -0.3835
vn 0.8928 -0.2778 -0.3547
vn 0.8540 -0.4230 -0.3029
vn 0.8407 -0.0401 -0.5401
vn 0.8359 -0.2368 -0.4952
vn 0.7475 -0.4202 -0.5144
vn 0.6409 -0.7639 -0.0757
vn 0.5842 -0.7626 -0.2777
vn 0.5277 -0.7196 -0.4513
vn 0.4772 -0.6140 -0.6287
vn 0.5526 -0.4067 -0.7275
vn 0.6191 -0.2982 -0.7265
vn 0.6916 -0.0791 -0.7179
usemtl Material
s off
f 57/1/1 58/2/1 13/3/1 12/4/1
f 58/2/2 59/5/2 14/6/2 13/3/2
f 59/5/3 60/7/3 15/8/3 14/6/3
f 12/4/4 13/3/4 17/9/4 16/10/4
f 13/3/5 14/6/5 18/11/5 17/9/5
f 14/6/6 15/8/6 19/12/6 18/11/6
f 16/10/7 17/9/7 21/13/7 20/14/7
f 17/9/8 18/11/8 22/15/8 21/13/8
f 18/11/9 19/12/9 23/16/9 22/15/9
f 22/15/10 23/16/10 8/17/10 7/18/10
f 21/13/11 22/15/11 7/18/11 6/19/11
f 20/14/12 21/13/12 6/19/12 5/20/12
f 11/21/13 20/14/13 5/20/13 1/22/13
f 10/23/14 16/10/14 20/14/14 11/21/14
f 9/24/15 12/4/15 16/10/15 10/23/15
f 53/25/16 57/1/16 12/4/16 9/24/16
f 121/26/17 24/27/17 27/28/17 125/29/17
f 24/27/18 25/30/18 28/31/18 27/28/18
f 25/30/19 26/32/19 29/33/19 28/31/19
f 125/29/20 27/28/20 30/34/20 129/35/20
f 27/28/21 28/31/21 31/36/21 30/34/21
f 28/31/22 29/33/22 32/37/22 31/36/22
f 129/35/23 30/34/23 33/38/23 133/39/23
f 30/34/24 31/36/24 34/40/24 33/38/24
f 31/36/25 32/37/25 35/41/25 34/40/25
f 101/42/26 4/43/26 24/27/26 121/26/26
f 4/43/27 3/44/27 25/30/27 24/27/27
f 3/44/28 2/45/28 26/32/28 25/30/28
f 2/45/29 1/22/29 5/20/29 26/32/29
f 26/32/30 5/20/30 6/19/30 29/33/30
f 29/33/31 6/19/31 7/18/31 32/37/31
f 32/37/32 7/18/32 8/17/32 35/41/32
f 194/46/33 85/47/33 36/48/33 137/49/33
f 85/47/34 86/50/34 37/51/34 36/48/34
f 86/50/35 87/52/35 38/53/35 37/51/35
f 137/49/36 36/48/36 39/54/36 141/55/36
f 36/48/37 37/51/37 40/56/37 39/54/37
f 37/51/38 38/53/38 41/57/38 40/56/38
f 141/55/39 39/54/39 42/58/39 145/59/39
f 39/54/40 40/56/40 43/60/40 42/58/40
f 40/56/41 41/57/41 44/61/41 43/60/41
f 87/52/42 53/25/42 9/24/42 38/53/42
f 38/53/43 9/24/43 10/23/43 41/57/43
f 41/57/44 10/23/44 11/21/44 44/61/44
f 44/61/45 11/21/45 1/22/45 2/45/45
f 43/60/46 44/61/46 2/45/46 3/44/46
f 42/58/47 43/60/47 3/44/47 4/43/47
f 145/59/48 42/58/48 4/43/48 101/42/48
f 57/1/49 61/62/49 62/63/49 58/2/49
f 58/2/50 62/63/50 63/64/50 59/5/50
f 59/5/51 63/64/51 64/65/51 60/7/51
f 61/62/52 65/66/52 66/67/52 62/63/52
f 62/63/53 66/67/53 67/68/53 63/64/53
f 63/64/54 67/68/54 68/69/54 64/65/54
f 65/66/55 69/70/55 70/71/55 66/67/55
f 66/67/56 70/71/56 71/72/56 67/68/56
f 67/68/57 71/72/57 72/73/57 68/69/57
f 71/72/58 51/74/58 52/75/58 72/73/58
f 70/71/59 50/76/59 51/74/59 71/72/59
f 69/70/60 49/77/60 50/76/60 70/71/60
f 56/78/61 45/79/61 49/77/61 69/70/61
f 55/80/62 56/78/62 69/70/62 65/66/62
f 54/81/63 55/80/63 65/66/63 61/62/63
f 53/25/64 54/81/64 61/62/64 57/1/64
f 178/82/65 182/83/65 76/84/65 73/85/65
f 73/85/66 76/84/66 77/86/66 74/87/66
f 74/87/67 77/86/67 78/88/67 75/89/67
f 182/83/68 186/90/68 79/91/68 76/84/68
f 76/84/69 79/91/69 80/92/69 77/86/69
f 77/86/70 80/92/70 81/93/70 78/88/70
f 186/90/71 190/94/71 82/95/71 79/91/71
f 79/91/72 82/95/72 83/96/72 80/92/72
f 80/92/73 83/96/73 84/97/73 81/93/73
f 153/98/74 178/82/74 73/85/74 48/99/74
f 48/99/75 73/85/75 74/87/75 47/100/75
f 47/100/76 74/87/76 75/89/76 46/101/76
f 46/101/77 75/89/77 49/77/77 45/79/77
f 75/89/78 78/88/78 50/76/78 49/77/78
f 78/88/79 81/93/79 51/74/79 50/76/79
f 81/93/80 84/97/80 52/75/80 51/74/80
f 194/46/81 198/102/81 88/103/81 85/47/81
f 85/47/82 88/103/82 89/104/82 86/50/82
f 86/50/83 89/104/83 90/105/83 87/52/83
f 198/102/84 202/106/84 91/107/84 88/103/84
f 88/103/85 91/107/85 92/108/85 89/104/85
f 89/104/86 92/108/86 93/109/86 90/105/86
f 202/106/87 206/110/87 94/111/87 91/107/87
f 91/107/88 94/111/88 95/112/88 92/108/88
f 92/108/89 95/112/89 96/113/89 93/109/89
f 87/52/90 90/105/90 54/81/90 53/25/90
f 90/105/91 93/109/91 55/80/91 54/81/91
f 93/109/92 96/113/92 56/78/92 55/80/92
f 96/113/93 46/101/93 45/79/93 56/78/93
f 95/112/94 47/100/94 46/101/94 96/113/94
f 94/111/95 48/99/95 47/100/95 95/112/95
f 206/110/96 153/98/96 48/99/96 94/111/96
f 162/114/97 109/115/97 110/116/97 163/117/97
f 163/117/98 110/116/98 111/118/98 164/119/98
f 164/119/99 111/118/99 112/120/99 165/121/99
f 109/115/100 113/122/100 114/123/100 110/116/100
f 110/116/101 114/123/101 115/124/101 111/118/101
f 111/118/102 115/124/102 116/125/102 112/120/102
f 113/122/103 117/126/103 118/127/103 114/123/103
f 114/123/104 118/127/104 119/128/104 115/124/104
f 115/124/105 119/128/105 120/129/105 116/125/105
f 119/128/106 104/130/106 105/131/106 120/129/106
f 118/127/107 103/132/107 104/130/107 119/128/107
f 117/126/108 102/133/108 103/132/108 118/127/108
f 108/134/109 97/135/109 102/133/109 117/126/109
f 107/136/110 108/134/110 117/126/110 113/122/110
f 106/137/111 107/136/111 113/122/111 109/115/111
f 158/138/112 106/137/112 109/115/112 162/114/112
f 121/26/113 125/29/113 126/139/113 122/140/113
f 122/140/114 126/139/114 127/141/114 123/142/114
f 123/142/115 127/141/115 128/143/115 124/144/115
f 125/29/116 129/35/116 130/145/116 126/139/116
f 126/139/117 130/145/117 131/146/117 127/141/117
f 127/141/118 131/146/118 132/147/118 128/143/118
f 129/35/119 133/39/119 134/148/119 130/145/119
f 130/145/120 134/148/120 135/149/120 131/146/120
f 131/146/121 135/149/121 136/150/121 132/147/121
f 101/42/122 121/26/122 122/140/122 100/151/122
f 100/151/123 122/140/123 123/142/123 99/152/123
f 99/152/124 123/142/124 124/144/124 98/153/124
f 98/153/125 124/144/125 102/133/125 97/135/125
f 124/144/126 128/143/126 103/132/126 102/133/126
f 128/143/127 132/147/127 104/130/127 103/132/127
f 132/147/128 136/150/128 105/131/128 104/130/128
f 194/46/129 137/49/129 138/154/129 195/155/129
f 195/155/130 138/154/130 139/156/130 196/157/130
f 196/157/131 139/156/131 140/158/131 197/159/131
f 137/49/132 141/55/132 142/160/132 138/154/132
f 138/154/133 142/160/133 143/161/133 139/156/133
f 139/156/134 143/161/134 144/162/134 140/158/134
f 141/55/135 145/59/135 146/163/135 142/160/135
f 142/160/136 146/163/136 147/164/136 143/161/136
f 143/161/137 147/164/137 148/165/137 144/162/137
f 197/159/138 140/158/138 106/137/138 158/138/138
f 140/158/139 144/162/139 107/136/139 106/137/139
f 144/162/140 148/165/140 108/134/140 107/136/140
f 148/165/141 98/153/141 97/135/141 108/134/141
f 147/164/142 99/152/142 98/153/142 148/165/142
f 146/163/143 100/151/143 99/152/143 147/164/143
f 145/59/144 101/42/144 100/151/144 146/163/144
f 162/114/145 163/117/145 167/166/145 166/167/145
f 163/117/146 164/119/146 168/168/146 167/166/146
f 164/119/147 165/121/147 169/169/147 168/168/147
f 166/167/148 167/166/148 171/170/148 170/171/148
f 167/166/149 168/168/149 172/172/149 171/170/149
f 168/168/150 169/169/150 173/173/150 172/172/150
f 170/171/151 171/170/151 175/174/151 174/175/151
f 171/170/152 172/172/152 176/176/152 175/174/152
f 172/172/153 173/173/153 177/177/153 176/176/153
f 176/176/154 177/177/154 157/178/154 156/179/154
f 175/174/155 176/176/155 156/179/155 155/180/155
f 174/175/156 175/174/156 155/180/156 154/181/156
f 161/182/157 174/175/157 154/181/157 149/183/157
f 160/184/158 170/171/158 174/175/158 161/182/158
f 159/185/159 166/167/159 170/171/159 160/184/159
f 158/138/160 162/114/160 166/167/160 159/185/160
f 178/82/161 179/186/161 183/187/161 182/83/161
f 179/186/162 180/188/162 184/189/162 183/187/162
f 180/188/163 181/190/163 185/191/163 184/189/163
f 182/83/164 183/187/164 187/192/164 186/90/164
f 183/187/165 184/189/165 188/193/165 187/192/165
f 184/189/166 185/191/166 189/194/166 188/193/166
f 186/90/167 187/192/167 191/195/167 190/94/167
f 187/192/168 188/193/168 192/196/168 191/195/168
f 188/193/169 189/194/169 193/197/169 192/196/169
f 153/98/170 152/198/170 179/186/170 178/82/170
f 152/198/171 151/199/171 180/188/171 179/186/171
f 151/199/172 150/200/172 181/190/172 180/188/172
f 150/200/173 149/183/173 154/181/173 181/190/173
f 181/190/174 154/181/174 155/180/174 185/191/174
f 185/191/175 155/180/175 156/179/175 189/194/175
f 189/194/176 156/179/176 157/178/176 193/197/176
f 194/46/177 195/155/177 199/201/177 198/102/177
f 195/155/178 196/157/178 200/202/178 199/201/178
f 196/157/179 197/159/179 201/203/179 200/202/179
f 198/102/180 199/201/180 203/204/180 202/106/180
f 199/201/181 200/202/181 204/205/181 203/204/181
f 200/202/182 201/203/182 205/206/182 204/205/182
f 202/106/183 203/204/183 207/207/183 206/110/183
f 203/204/184 204/205/184 208/208/184 207/207/184
f 204/205/185 205/206/185 209/209/185 208/208/185
f 197/159/186 158/138/186 159/185/186 201/203/186
f 201/203/187 159/185/187 160/184/187 205/206/187
f 205/206/188 160/184/188 161/182/188 209/209/188
f 209/209/189 161/182/189 149/183/189 150/200/189
f 208/208/190 209/209/190 150/200/190 151/199/190
f 207/207/191 208/208/191 151/199/191 152/198/191
f 206/110/192 207/207/192 152/198/192 153/98/192
