# Blender v2.82 (sub 7) OBJ File: ''
# www.blender.org
mtllib ring.mtl
o Torus
v 1.100000 0.000000 0.000000
v 1.070711 -0.000000 0.070711
v 1.000000 -0.000000 0.100000
v 0.929289 -0.000000 0.070711
v 0.900000 -0.000000 0.000000
v 0.929289 0.000000 -0.070711
v 1.000000 0.000000 -0.100000
v 1.070711 0.000000 -0.070711
v 1.046162 0.339919 0.000000
v 1.018306 0.330868 0.070711
v 0.951057 0.309017 0.100000
v 0.883807 0.287166 0.070711
v 0.855951 0.278115 0.000000
v 0.883807 0.287166 -0.070711
v 0.951057 0.309017 -0.100000
v 1.018306 0.330868 -0.070711
v 0.889919 0.646564 0.000000
v 0.866223 0.629348 0.070711
v 0.809017 0.587785 0.100000
v 0.751811 0.546223 0.070711
v 0.728115 0.529007 0.000000
v 0.751811 0.546223 -0.070711
v 0.809017 0.587785 -0.100000
v 0.866223 0.629348 -0.070711
v 0.646564 0.889919 0.000000
v 0.629348 0.866223 0.070711
v 0.587785 0.809017 0.100000
v 0.546222 0.751811 0.070711
v 0.529007 0.728115 0.000000
v 0.546222 0.751811 -0.070711
v 0.587785 0.809017 -0.100000
v 0.629348 0.866223 -0.070711
v 0.339919 1.046162 0.000000
v 0.330868 1.018306 0.070711
v 0.309017 0.951056 0.100000
v 0.287166 0.883807 0.070711
v 0.278115 0.855951 0.000000
v 0.287166 0.883807 -0.070711
v 0.309017 0.951056 -0.100000
v 0.330868 1.018306 -0.070711
v 0.000000 1.100000 0.000000
v 0.000000 1.070711 0.070711
v 0.000000 1.000000 0.100000
v 0.000000 0.929289 0.070711
v 0.000000 0.900000 0.000000
v 0.000000 0.929289 -0.070711
v 0.000000 1.000000 -0.100000
v 0.000000 1.070711 -0.070711
v -0.339919 1.046162 0.000000
v -0.330868 1.018306 0.070711
v -0.309017 0.951056 0.100000
v -0.287166 0.883807 0.070711
v -0.278115 0.855951 0.000000
v -0.287166 0.883807 -0.070711
v -0.309017 0.951056 -0.100000
v -0.330868 1.018306 -0.070711
v -0.646564 0.889919 0.000000
v -0.629348 0.866223 0.070711
v -0.587785 0.809017 0.100000
v -0.546223 0.751811 0.070711
v -0.529007 0.728115 0.000000
v -0.546223 0.751811 -0.070711
v -0.587785 0.809017 -0.100000
v -0.629348 0.866223 -0.070711
v -0.889919 0.646564 0.000000
v -0.866223 0.629348 0.070711
v -0.809017 0.587785 0.100000
v -0.751811 0.546222 0.070711
v -0.728115 0.529006 0.000000
v -0.751811 0.546222 -0.070711
v -0.809017 0.587785 -0.100000
v -0.866223 0.629348 -0.070711
v -1.046162 0.339919 0.000000
v -1.018306 0.330868 0.070711
v -0.951056 0.309017 0.100000
v -0.883807 0.287166 0.070711
v -0.855951 0.278115 0.000000
v -0.883807 0.287166 -0.070711
v -0.951056 0.309017 -0.100000
v -1.018306 0.330868 -0.070711
v -1.100000 0.000000 0.000000
v -1.070711 0.000000 0.070711
v -1.000000 0.000000 0.100000
v -0.929289 0.000000 0.070711
v -0.900000 0.000000 0.000000
v -0.929289 0.000000 -0.070711
v -1.000000 0.000000 -0.100000
v -1.070711 0.000000 -0.070711
v -1.046162 -0.339918 -0.000000
v -1.018306 -0.330867 0.070711
v -0.951057 -0.309017 0.100000
v -0.883807 -0.287166 0.070711
v -0.855951 -0.278115 -0.000000
v -0.883807 -0.287166 -0.070711
v -0.951057 -0.309017 -0.100000
v -1.018306 -0.330867 -0.070711
v -0.889919 -0.646564 -0.000000
v -0.866223 -0.629348 0.070711
v -0.809017 -0.587785 0.100000
v -0.751811 -0.546222 0.070711
v -0.728115 -0.529006 -0.000000
v -0.751811 -0.546222 -0.070711
v -0.809017 -0.587785 -0.100000
v -0.866223 -0.629348 -0.070711
v -0.646564 -0.889919 -0.000000
v -0.629348 -0.866223 0.070711
v -0.587785 -0.809017 0.100000
v -0.546223 -0.751811 0.070711
v -0.529007 -0.728115 -0.000000
v -0.546223 -0.751811 -0.070711
v -0.587785 -0.809017 -0.100000
v -0.629348 -0.866223 -0.070711
v -0.339919 -1.046162 -0.000000
v -0.330868 -1.018306 0.070711
v -0.309017 -0.951056 0.100000
v -0.287166 -0.883807 0.070711
v -0.278115 -0.855951 -0.000000
v -0.287166 -0.883807 -0.070711
v -0.309017 -0.951056 -0.100000
v -0.330868 -1.018306 -0.070711
v 0.000000 -1.100000 -0.000000
v 0.000000 -1.070711 0.070711
v 0.000000 -1.000000 0.100000
v 0.000000 -0.929289 0.070711
v 0.000000 -0.900000 -0.000000
v 0.000000 -0.929289 -0.070711
v 0.000000 -1.000000 -0.100000
v 0.000000 -1.070711 -0.070711
v 0.339919 -1.046162 -0.000000
v 0.330868 -1.018306 0.070711
v 0.309017 -0.951056 0.100000
v 0.287166 -0.883807 0.070711
v 0.278115 -0.855951 -0.000000
v 0.287166 -0.883807 -0.070711
v 0.309017 -0.951056 -0.100000
v 0.330868 -1.018306 -0.070711
v 0.646563 -0.889919 -0.000000
v 0.629347 -0.866224 0.070711
v 0.587785 -0.809017 0.100000
v 0.546222 -0.751811 0.070711
v 0.529006 -0.728116 -0.000000
v 0.546222 -0.751811 -0.070711
v 0.587785 -0.809017 -0.100000
v 0.629347 -0.866224 -0.070711
v 0.889918 -0.646564 -0.000000
v 0.866223 -0.629348 0.070711
v 0.809017 -0.587786 0.100000
v 0.751811 -0.546223 0.070711
v 0.728115 -0.529007 -0.000000
v 0.751811 -0.546223 -0.070711
v 0.809017 -0.587786 -0.100000
v 0.866223 -0.629348 -0.070711
v 1.046162 -0.339919 -0.000000
v 1.018306 -0.330868 0.070711
v 0.951056 -0.309017 0.100000
v 0.883807 -0.287167 0.070711
v 0.855951 -0.278116 -0.000000
v 0.883807 -0.287167 -0.070711
v 0.951056 -0.309017 -0.100000
v 1.018306 -0.330868 -0.070711
vt 0.550000 0.500000
vt 0.600000 0.500000
vt 0.600000 0.625000
vt 0.550000 0.625000
vt 0.600000 0.750000
vt 0.550000 0.750000
vt 0.600000 0.875000
vt 0.550000 0.875000
vt 0.600000 1.000000
vt 0.550000 1.000000
vt 0.550000 0.000000
vt 0.600000 0.000000
vt 0.600000 0.125000
vt 0.550000 0.125000
vt 0.600000 0.250000
vt 0.550000 0.250000
vt 0.600000 0.375000
vt 0.550000 0.375000
vt 0.650000 0.500000
vt 0.650000 0.625000
vt 0.650000 0.750000
vt 0.650000 0.875000
vt 0.650000 1.000000
vt 0.650000 0.000000
vt 0.650000 0.125000
vt 0.650000 0.250000
vt 0.650000 0.375000
vt 0.700000 0.500000
vt 0.700000 0.625000
vt 0.700000 0.750000
vt 0.700000 0.875000
vt 0.700000 1.000000
vt 0.700000 0.000000
vt 0.700000 0.125000
vt 0.700000 0.250000
vt 0.700000 0.375000
vt 0.750000 0.500000
vt 0.750000 0.625000
vt 0.750000 0.750000
vt 0.750000 0.875000
vt 0.750000 1.000000
vt 0.750000 0.000000
vt 0.750000 0.125000
vt 0.750000 0.250000
vt 0.750000 0.375000
vt 0.800000 0.500000
vt 0.800000 0.625000
vt 0.800000 0.750000
vt 0.800000 0.875000
vt 0.800000 1.000000
vt 0.800000 0.000000
vt 0.800000 0.125000
vt 0.800000 0.250000
vt 0.800000 0.375000
vt 0.850000 0.500000
vt 0.850000 0.625000
vt 0.850000 0.750000
vt 0.850000 0.875000
vt 0.850000 1.000000
vt 0.850000 0.000000
vt 0.850000 0.125000
vt 0.850000 0.250000
vt 0.850000 0.375000
vt 0.900000 0.500000
vt 0.900000 0.625000
vt 0.900000 0.750000
vt 0.900000 0.875000
vt 0.900000 1.000000
vt 0.900000 0.000000
vt 0.900000 0.125000
vt 0.900000 0.250000
vt 0.900000 0.375000
vt 0.950000 0.500000
vt 0.950000 0.625000
vt 0.950000 0.750000
vt 0.950000 0.875000
vt 0.950000 1.000000
vt 0.950000 0.000000
vt 0.950000 0.125000
vt 0.950000 0.250000
vt 0.950000 0.375000
vt 1.000000 0.500000
vt 1.000000 0.625000
vt 1.000000 0.750000
vt 1.000000 0.875000
vt 1.000000 1.000000
vt 1.000000 0.000000
vt 1.000000 0.125000
vt 1.000000 0.250000
vt 1.000000 0.375000
vt 0.000000 0.500000
vt 0.050000 0.500000
vt 0.050000 0.625000
vt 0.000000 0.625000
vt 0.050000 0.750000
vt 0.000000 0.750000
vt 0.050000 0.875000
vt 0.000000 0.875000
vt 0.050000 1.000000
vt 0.000000 1.000000
vt 0.000000 0.000000
vt 0.050000 0.000000
vt 0.050000 0.125000
vt 0.000000 0.125000
vt 0.050000 0.250000
vt 0.000000 0.250000
vt 0.050000 0.375000
vt 0.000000 0.375000
vt 0.100000 0.500000
vt 0.100000 0.625000
vt 0.100000 0.750000
vt 0.100000 0.875000
vt 0.100000 1.000000
vt 0.100000 0.000000
vt 0.100000 0.125000
vt 0.100000 0.250000
vt 0.100000 0.375000
vt 0.150000 0.500000
vt 0.150000 0.625000
vt 0.150000 0.750000
vt 0.150000 0.875000
vt 0.150000 1.000000
vt 0.150000 0.000000
vt 0.150000 0.125000
vt 0.150000 0.250000
vt 0.150000 0.375000
vt 0.200000 0.500000
vt 0.200000 0.625000
vt 0.200000 0.750000
vt 0.200000 0.875000
vt 0.200000 1.000000
vt 0.200000 0.000000
vt 0.200000 0.125000
vt 0.200000 0.250000
vt 0.200000 0.375000
vt 0.250000 0.500000
vt 0.250000 0.625000
vt 0.250000 0.750000
vt 0.250000 0.875000
vt 0.250000 1.000000
vt 0.250000 0.000000
vt 0.250000 0.125000
vt 0.250000 0.250000
vt 0.250000 0.375000
vt 0.300000 0.500000
vt 0.300000 0.625000
vt 0.300000 0.750000
vt 0.300000 0.875000
vt 0.300000 1.000000
vt 0.300000 0.000000
vt 0.300000 0.125000
vt 0.300000 0.250000
vt 0.300000 0.375000
vt 0.350000 0.500000
vt 0.350000 0.625000
vt 0.350000 0.750000
vt 0.350000 0.875000
vt 0.350000 1.000000
vt 0.350000 0.000000
vt 0.350000 0.125000
vt 0.350000 0.250000
vt 0.350000 0.375000
vt 0.400000 0.500000
vt 0.400000 0.625000
vt 0.400000 0.750000
vt 0.400000 0.875000
vt 0.400000 1.000000
vt 0.400000 0.000000
vt 0.400000 0.125000
vt 0.400000 0.250000
vt 0.400000 0.375000
vt 0.450000 0.500000
vt 0.450000 0.625000
vt 0.450000 0.750000
vt 0.450000 0.875000
vt 0.450000 1.000000
vt 0.450000 0.000000
vt 0.450000 0.125000
vt 0.450000 0.250000
vt 0.450000 0.375000
vt 0.500000 0.500000
vt 0.500000 0.625000
vt 0.500000 0.750000
vt 0.500000 0.875000
vt 0.500000 1.000000
vt 0.500000 0.000000
vt 0.500000 0.125000
vt 0.500000 0.250000
vt 0.500000 0.375000
vn 0.9701 0.2428 0.0000
vn 0.9226 0.2998 0.2428
vn 0.7259 -0.0090 0.6878
vn 0.8663 -0.0000 0.4995
vn 0.0702 -0.2076 0.9757
vn 0.2590 -0.0000 0.9659
vn -0.5871 -0.4208 0.6916
vn -0.5100 -0.0000 0.8602
vn -0.8585 -0.5129 0.0000
vn -0.9749 0.0000 0.2225
vn -0.5871 -0.4208 -0.6916
vn -0.8301 0.0000 -0.5576
vn 0.0702 -0.2076 -0.9757
vn -0.1845 0.0000 -0.9828
vn 0.7259 -0.0090 -0.6878
vn 0.5438 0.0000 -0.8392
vn 0.7848 0.5702 0.2428
vn 0.6931 0.2158 0.6878
vn 0.1309 -0.1758 0.9757
vn -0.4283 -0.5816 0.6916
vn -0.6580 -0.7531 -0.0000
vn -0.4283 -0.5816 -0.6916
vn 0.1309 -0.1758 -0.9757
vn 0.6931 0.2158 -0.6878
vn 0.5702 0.7848 0.2428
vn 0.5925 0.4194 0.6878
vn 0.1788 -0.1267 0.9757
vn -0.2276 -0.6855 0.6916
vn -0.3930 -0.9195 -0.0000
vn -0.2276 -0.6855 -0.6916
vn 0.1788 -0.1267 -0.9757
vn 0.5925 0.4194 -0.6878
vn 0.2998 0.9226 0.2428
vn 0.4339 0.5820 0.6878
vn 0.2092 -0.0653 0.9757
vn -0.0046 -0.7223 0.6916
vn -0.0897 -0.9960 -0.0000
vn -0.0046 -0.7223 -0.6916
vn 0.2092 -0.0653 -0.9757
vn 0.4339 0.5820 -0.6878
vn 0.0000 0.9701 0.2428
vn 0.2328 0.6876 0.6878
vn 0.2192 0.0026 0.9757
vn 0.2188 -0.6884 0.6916
vn 0.2225 -0.9749 0.0000
vn 0.2188 -0.6884 -0.6916
vn 0.2192 0.0026 -0.9757
vn 0.2328 0.6876 -0.6878
vn -0.2998 0.9226 0.2428
vn 0.0090 0.7259 0.6878
vn 0.2076 0.0702 0.9757
vn 0.4208 -0.5871 0.6916
vn 0.5129 -0.8585 0.0000
vn 0.4208 -0.5871 -0.6916
vn 0.2076 0.0702 -0.9757
vn 0.0090 0.7259 -0.6878
vn -0.5702 0.7848 0.2428
vn -0.2158 0.6931 0.6878
vn 0.1758 0.1309 0.9757
vn 0.5816 -0.4283 0.6916
vn 0.7531 -0.6580 0.0000
vn 0.5816 -0.4283 -0.6916
vn 0.1758 0.1309 -0.9757
vn -0.2158 0.6931 -0.6878
vn -0.7848 0.5702 0.2428
vn -0.4194 0.5925 0.6878
vn 0.1267 0.1788 0.9757
vn 0.6855 -0.2276 0.6916
vn 0.9195 -0.3930 0.0000
vn 0.6855 -0.2276 -0.6916
vn 0.1267 0.1788 -0.9757
vn -0.4194 0.5925 -0.6878
vn -0.9226 0.2998 0.2428
vn -0.5820 0.4339 0.6878
vn 0.0653 0.2092 0.9757
vn 0.7223 -0.0046 0.6916
vn 0.9960 -0.0897 0.0000
vn 0.7223 -0.0046 -0.6916
vn 0.0653 0.2092 -0.9757
vn -0.5820 0.4339 -0.6878
vn -0.9701 0.0000 0.2428
vn -0.6876 0.2328 0.6878
vn -0.0026 0.2192 0.9757
vn 0.6884 0.2188 0.6916
vn 0.9749 0.2225 0.0000
vn 0.6884 0.2188 -0.6916
vn -0.0026 0.2192 -0.9757
vn -0.6876 0.2328 -0.6878
vn -0.9226 -0.2998 0.2428
vn -0.7259 0.0090 0.6878
vn -0.0702 0.2076 0.9757
vn 0.5871 0.4208 0.6916
vn 0.8585 0.5129 0.0000
vn 0.5871 0.4208 -0.6916
vn -0.0702 0.2076 -0.9757
vn -0.7259 0.0090 -0.6878
vn -0.7848 -0.5702 0.2428
vn -0.6931 -0.2158 0.6878
vn -0.1309 0.1758 0.9757
vn 0.4283 0.5816 0.6916
vn 0.6580 0.7531 0.0000
vn 0.4283 0.5816 -0.6916
vn -0.1309 0.1758 -0.9757
vn -0.6931 -0.2158 -0.6878
vn -0.5702 -0.7848 0.2428
vn -0.5925 -0.4194 0.6878
vn -0.1788 0.1267 0.9757
vn 0.2276 0.6855 0.6916
vn 0.3930 0.9195 0.0000
vn 0.2276 0.6855 -0.6916
vn -0.1788 0.1267 -0.9757
vn -0.5925 -0.4194 -0.6878
vn -0.2998 -0.9226 0.2428
vn -0.4339 -0.5820 0.6878
vn -0.2092 0.0653 0.9757
vn 0.0046 0.7223 0.6916
vn 0.0897 0.9960 0.0000
vn 0.0046 0.7223 -0.6916
vn -0.2092 0.0653 -0.9757
vn -0.4339 -0.5820 -0.6878
vn 0.0000 -0.9701 0.2428
vn -0.2328 -0.6876 0.6878
vn -0.2192 -0.0026 0.9757
vn -0.2188 0.6884 0.6916
vn -0.2225 0.9749 -0.0000
vn -0.2188 0.6884 -0.6916
vn -0.2192 -0.0026 -0.9757
vn -0.2328 -0.6876 -0.6878
vn 0.2998 -0.9226 0.2428
vn -0.0090 -0.7259 0.6878
vn -0.2076 -0.0702 0.9757
vn -0.4208 0.5871 0.6916
vn -0.5129 0.8585 -0.0000
vn -0.4208 0.5871 -0.6916
vn -0.2076 -0.0702 -0.9757
vn -0.0090 -0.7259 -0.6878
vn 0.5702 -0.7848 0.2428
vn 0.2158 -0.6931 0.6878
vn -0.1758 -0.1309 0.9757
vn -0.5816 0.4283 0.6916
vn -0.7531 0.6580 -0.0000
vn -0.5816 0.4283 -0.6916
vn -0.1758 -0.1309 -0.9757
vn 0.2158 -0.6931 -0.6878
vn 0.7848 -0.5702 0.2428
vn 0.4194 -0.5925 0.6878
vn -0.1267 -0.1788 0.9757
vn -0.6855 0.2276 0.6916
vn -0.9195 0.3930 -0.0000
vn -0.6855 0.2276 -0.6916
vn -0.1267 -0.1788 -0.9757
vn 0.4194 -0.5925 -0.6878
vn 0.9226 -0.2998 0.2428
vn 0.5820 -0.4339 0.6878
vn -0.0653 -0.2092 0.9757
vn -0.7223 0.0046 0.6916
vn -0.9960 0.0897 -0.0000
vn -0.7223 0.0046 -0.6916
vn -0.0653 -0.2092 -0.9757
vn 0.5820 -0.4339 -0.6878
usemtl None
s 1
f 1/1/1 9/2/2 10/3/3 2/4/4
f 2/4/4 10/3/3 11/5/5 3/6/6
f 3/6/6 11/5/5 12/7/7 4/8/8
f 4/8/8 12/7/7 13/9/9 5/10/10
f 5/11/10 13/12/9 14/13/11 6/14/12
f 6/14/12 14/13/11 15/15/13 7/16/14
f 7/16/14 15/15/13 16/17/15 8/18/16
f 8/18/16 16/17/15 9/2/2 1/1/1
f 9/2/2 17/19/17 18/20/18 10/3/3
f 10/3/3 18/20/18 19/21/19 11/5/5
f 11/5/5 19/21/19 20/22/20 12/7/7
f 12/7/7 20/22/20 21/23/21 13/9/9
f 13/12/9 21/24/21 22/25/22 14/13/11
f 14/13/11 22/25/22 23/26/23 15/15/13
f 15/15/13 23/26/23 24/27/24 16/17/15
f 16/17/15 24/27/24 17/19/17 9/2/2
f 17/19/17 25/28/25 26/29/26 18/20/18
f 18/20/18 26/29/26 27/30/27 19/21/19
f 19/21/19 27/30/27 28/31/28 20/22/20
f 20/22/20 28/31/28 29/32/29 21/23/21
f 21/24/21 29/33/29 30/34/30 22/25/22
f 22/25/22 30/34/30 31/35/31 23/26/23
f 23/26/23 31/35/31 32/36/32 24/27/24
f 24/27/24 32/36/32 25/28/25 17/19/17
f 25/28/25 33/37/33 34/38/34 26/29/26
f 26/29/26 34/38/34 35/39/35 27/30/27
f 27/30/27 35/39/35 36/40/36 28/31/28
f 28/31/28 36/40/36 37/41/37 29/32/29
f 29/33/29 37/42/37 38/43/38 30/34/30
f 30/34/30 38/43/38 39/44/39 31/35/31
f 31/35/31 39/44/39 40/45/40 32/36/32
f 32/36/32 40/45/40 33/37/33 25/28/25
f 33/37/33 41/46/41 42/47/42 34/38/34
f 34/38/34 42/47/42 43/48/43 35/39/35
f 35/39/35 43/48/43 44/49/44 36/40/36
f 36/40/36 44/49/44 45/50/45 37/41/37
f 37/42/37 45/51/45 46/52/46 38/43/38
f 38/43/38 46/52/46 47/53/47 39/44/39
f 39/44/39 47/53/47 48/54/48 40/45/40
f 40/45/40 48/54/48 41/46/41 33/37/33
f 41/46/41 49/55/49 50/56/50 42/47/42
f 42/47/42 50/56/50 51/57/51 43/48/43
f 43/48/43 51/57/51 52/58/52 44/49/44
f 44/49/44 52/58/52 53/59/53 45/50/45
f 45/51/45 53/60/53 54/61/54 46/52/46
f 46/52/46 54/61/54 55/62/55 47/53/47
f 47/53/47 55/62/55 56/63/56 48/54/48
f 48/54/48 56/63/56 49/55/49 41/46/41
f 49/55/49 57/64/57 58/65/58 50/56/50
f 50/56/50 58/65/58 59/66/59 51/57/51
f 51/57/51 59/66/59 60/67/60 52/58/52
f 52/58/52 60/67/60 61/68/61 53/59/53
f 53/60/53 61/69/61 62/70/62 54/61/54
f 54/61/54 62/70/62 63/71/63 55/62/55
f 55/62/55 63/71/63 64/72/64 56/63/56
f 56/63/56 64/72/64 57/64/57 49/55/49
f 57/64/57 65/73/65 66/74/66 58/65/58
f 58/65/58 66/74/66 67/75/67 59/66/59
f 59/66/59 67/75/67 68/76/68 60/67/60
f 60/67/60 68/76/68 69/77/69 61/68/61
f 61/69/61 69/78/69 70/79/70 62/70/62
f 62/70/62 70/79/70 71/80/71 63/71/63
f 63/71/63 71/80/71 72/81/72 64/72/64
f 64/72/64 72/81/72 65/73/65 57/64/57
f 65/73/65 73/82/73 74/83/74 66/74/66
f 66/74/66 74/83/74 75/84/75 67/75/67
f 67/75/67 75/84/75 76/85/76 68/76/68
f 68/76/68 76/85/76 77/86/77 69/77/69
f 69/78/69 77/87/77 78/88/78 70/79/70
f 70/79/70 78/88/78 79/89/79 71/80/71
f 71/80/71 79/89/79 80/90/80 72/81/72
f 72/81/72 80/90/80 73/82/73 65/73/65
f 73/91/73 81/92/81 82/93/82 74/94/74
f 74/94/74 82/93/82 83/95/83 75/96/75
f 75/96/75 83/95/83 84/97/84 76/98/76
f 76/98/76 84/97/84 85/99/85 77/100/77
f 77/101/77 85/102/85 86/103/86 78/104/78
f 78/104/78 86/103/86 87/105/87 79/106/79
f 79/106/79 87/105/87 88/107/88 80/108/80
f 80/108/80 88/107/88 81/92/81 73/91/73
f 81/92/81 89/109/89 90/110/90 82/93/82
f 82/93/82 90/110/90 91/111/91 83/95/83
f 83/95/83 91/111/91 92/112/92 84/97/84
f 84/97/84 92/112/92 93/113/93 85/99/85
f 85/102/85 93/114/93 94/115/94 86/103/86
f 86/103/86 94/115/94 95/116/95 87/105/87
f 87/105/87 95/116/95 96/117/96 88/107/88
f 88/107/88 96/117/96 89/109/89 81/92/81
f 89/109/89 97/118/97 98/119/98 90/110/90
f 90/110/90 98/119/98 99/120/99 91/111/91
f 91/111/91 99/120/99 100/121/100 92/112/92
f 92/112/92 100/121/100 101/122/101 93/113/93
f 93/114/93 101/123/101 102/124/102 94/115/94
f 94/115/94 102/124/102 103/125/103 95/116/95
f 95/116/95 103/125/103 104/126/104 96/117/96
f 96/117/96 104/126/104 97/118/97 89/109/89
f 97/118/97 105/127/105 106/128/106 98/119/98
f 98/119/98 106/128/106 107/129/107 99/120/99
f 99/120/99 107/129/107 108/130/108 100/121/100
f 100/121/100 108/130/108 109/131/109 101/122/101
f 101/123/101 109/132/109 110/133/110 102/124/102
f 102/124/102 110/133/110 111/134/111 103/125/103
f 103/125/103 111/134/111 112/135/112 104/126/104
f 104/126/104 112/135/112 105/127/105 97/118/97
f 105/127/105 113/136/113 114/137/114 106/128/106
f 106/128/106 114/137/114 115/138/115 107/129/107
f 107/129/107 115/138/115 116/139/116 108/130/108
f 108/130/108 116/139/116 117/140/117 109/131/109
f 109/132/109 117/141/117 118/142/118 110/133/110
f 110/133/110 118/142/118 119/143/119 111/134/111
f 111/134/111 119/143/119 120/144/120 112/135/112
f 112/135/112 120/144/120 113/136/113 105/127/105
f 113/136/113 121/145/121 122/146/122 114/137/114
f 114/137/114 122/146/122 123/147/123 115/138/115
f 115/138/115 123/147/123 124/148/124 116/139/116
f 116/139/116 124/148/124 125/149/125 117/140/117
f 117/141/117 125/150/125 126/151/126 118/142/118
f 118/142/118 126/151/126 127/152/127 119/143/119
f 119/143/119 127/152/127 128/153/128 120/144/120
f 120/144/120 128/153/128 121/145/121 113/136/113
f 121/145/121 129/154/129 130/155/130 122/146/122
f 122/146/122 130/155/130 131/156/131 123/147/123
f 123/147/123 131/156/131 132/157/132 124/148/124
f 124/148/124 132/157/132 133/158/133 125/149/125
f 125/150/125 133/159/133 134/160/134 126/151/126
f 126/151/126 134/160/134 135/161/135 127/152/127
f 127/152/127 135/161/135 136/162/136 128/153/128
f 128/153/128 136/162/136 129/154/129 121/145/121
f 129/154/129 137/163/137 138/164/138 130/155/130
f 130/155/130 138/164/138 139/165/139 131/156/131
f 131/156/131 139/165/139 140/166/140 132/157/132
f 132/157/132 140/166/140 141/167/141 133/158/133
f 133/159/133 141/168/141 142/169/142 134/160/134
f 134/160/134 142/169/142 143/170/143 135/161/135
f 135/161/135 143/170/143 144/171/144 136/162/136
f 136/162/136 144/171/144 137/163/137 129/154/129
f 137/163/137 145/172/145 146/173/146 138/164/138
f 138/164/138 146/173/146 147/174/147 139/165/139
f 139/165/139 147/174/147 148/175/148 140/166/140
f 140/166/140 148/175/148 149/176/149 141/167/141
f 141/168/141 149/177/149 150/178/150 142/169/142
f 142/169/142 150/178/150 151/179/151 143/170/143
f 143/170/143 151/179/151 152/180/152 144/171/144
f 144/171/144 152/180/152 145/172/145 137/163/137
f 145/172/145 153/181/153 154/182/154 146/173/146
f 146/173/146 154/182/154 155/183/155 147/174/147
f 147/174/147 155/183/155 156/184/156 148/175/148
f 148/175/148 156/184/156 157/185/157 149/176/149
f 149/177/149 157/186/157 158/187/158 150/178/150
f 150/178/150 158/187/158 159/188/159 151/179/151
f 151/179/151 159/188/159 160/189/160 152/180/152
f 152/180/152 160/189/160 153/181/153 145/172/145
f 153/181/153 1/1/1 2/4/4 154/182/154
f 154/182/154 2/4/4 3/6/6 155/183/155
f 155/183/155 3/6/6 4/8/8 156/184/156
f 156/184/156 4/8/8 5/10/10 157/185/157
f 157/186/157 5/11/10 6/14/12 158/187/158
f 158/187/158 6/14/12 7/16/14 159/188/159
f 159/188/159 7/16/14 8/18/16 160/189/160
f 160/189/160 8/18/16 1/1/1 153/181/153
